<svg width="298" height="209" viewBox="0 0 298 209" fill="none" xmlns="http://www.w3.org/2000/svg">
<path fill-rule="evenodd" clip-rule="evenodd" d="M160.049 32.591C133.785 31.7751 103.878 34.2016 87.54 54.715C71.9064 74.3434 62.0675 100.13 68.8392 124.266C73.8192 142.016 106.158 154.643 119.233 167.675C132.307 180.707 141.977 198.037 160.049 201.933C181.874 206.637 210.419 208.244 223.39 190.127C236.289 172.112 212.899 149.108 213.706 126.99C214.584 102.95 240.072 80.0139 228.175 59.0838C215.684 37.1074 185.377 33.3777 160.049 32.591Z" fill="#E0F9FF"/>
<path d="M128.954 124.112C122.209 129.221 105.472 129.275 112.546 104.744" stroke="#66C3E8" stroke-width="3.16667" stroke-linecap="round"/>
<path d="M187.853 105.431C192.466 106.4 214.999 101.696 210.366 89.3064" stroke="#66C3E8" stroke-width="3.16667" stroke-linecap="round"/>
<path d="M188.141 47.1342C188.691 26.0625 171.132 8.47363 150.187 10.8457C134.383 12.6355 121.976 25.4428 121.375 41.336C119.746 84.4588 123.112 116.155 134.383 157.557C138.578 172.969 153.635 182.643 169.506 180.846C190.511 178.467 203.828 157.462 198.551 136.991C190.552 105.962 187.295 79.5137 188.141 47.1342Z" fill="#B5E4F7"/>
<path d="M127.037 34.3807C127.035 34.2554 127.009 34.1258 126.965 34.0141L127.333 33.8681L126.965 34.0141C126.562 32.9993 125.079 33.2378 125.014 34.3267C122.063 83.9541 125.632 118.099 137.775 157.426C141.452 169.334 152.775 177.069 165.26 176.907L168.503 176.865C178.214 176.739 186.519 172.264 190.581 166.263C192.61 163.267 193.577 159.9 193.156 156.497C192.736 153.096 190.923 149.616 187.314 146.404C184.207 143.639 180.814 140.919 177.273 138.081C168.185 130.796 158.125 122.733 149.431 111.12C137.325 94.9501 127.841 71.8916 127.037 34.3807Z" fill="#A9DAED" stroke="#A9DAED" stroke-width="0.791667"/>
<circle cx="156.914" cy="35.6716" r="3.42721" transform="rotate(-5.57471 156.914 35.6716)" fill="white"/>
<circle cx="171.758" cy="53.0239" r="3.42721" transform="rotate(-5.57471 171.758 53.0239)" fill="white"/>
<circle cx="139.94" cy="53.6594" r="3.42721" transform="rotate(-5.57471 139.94 53.6594)" fill="white"/>
<circle cx="166.847" cy="154.762" r="3.42721" transform="rotate(163.983 166.847 154.762)" fill="white"/>
<circle cx="149.104" cy="140.388" r="3.42721" transform="rotate(163.983 149.104 140.388)" fill="white"/>
<circle cx="180.28" cy="133.995" r="3.42721" transform="rotate(163.983 180.28 133.995)" fill="white"/>
<path d="M186.759 113.946C187.333 116.444 185.627 118.907 183.082 119.209L140.602 124.252C138.479 124.504 136.492 123.15 135.976 121.076C131.884 104.631 130.63 93.9407 130.789 77.4431C130.81 75.3094 132.423 73.5337 134.542 73.2822L176.995 68.2427C179.554 67.939 181.794 69.9544 181.81 72.5307C181.908 88.2333 183.243 98.6416 186.759 113.946Z" fill="#E0F9FF"/>
<ellipse cx="3.74269" cy="2.67335" rx="3.74269" ry="2.67335" transform="matrix(-0.977157 0.21252 0.21252 0.977157 146.035 94.4521)" fill="white"/>
<ellipse cx="3.74269" cy="2.67335" rx="3.74269" ry="2.67335" transform="matrix(-0.999993 -0.00385341 -0.00385341 0.999993 175.785 90.9126)" fill="white"/>
<path d="M173.654 87.6748C170.512 84.1615 167.062 84.9423 165.154 88.6371" stroke="#66C3E8" stroke-width="2.13868" stroke-linecap="round"/>
<ellipse cx="148.199" cy="89.2298" rx="2.6099" ry="3.94609" transform="rotate(-8.18681 148.199 89.2298)" fill="#66C3E8"/>
<g clip-path="url(#clip0_1295_35894)">
<path d="M164.909 99.2021L155.346 100.285L155.406 100.816C155.705 103.457 158.088 105.355 160.729 105.056C163.37 104.757 165.268 102.374 164.969 99.7334L164.909 99.2021Z" fill="#66C3E8"/>
<path d="M156.298 103.944C156.35 104.397 156.745 104.881 157.586 105.23C158.407 105.572 159.542 105.729 160.789 105.588C162.037 105.446 163.108 105.039 163.832 104.523C164.572 103.994 164.85 103.434 164.799 102.981C164.747 102.528 164.351 102.045 163.511 101.695C162.69 101.353 161.555 101.196 160.308 101.337C159.06 101.479 157.989 101.886 157.265 102.402C156.525 102.931 156.247 103.491 156.298 103.944Z" fill="#B5E4F7" stroke="#B5E4F7" stroke-width="1.06934"/>
</g>
<path d="M164.849 98.6709L165.38 98.6107L165.44 99.142L165.5 99.6733C165.832 102.607 163.723 105.255 160.789 105.588C157.855 105.92 155.207 103.811 154.875 100.877L154.814 100.345L154.754 99.8141L155.286 99.7539L164.849 98.6709Z" stroke="#66C3E8" stroke-width="1.06934"/>
<path d="M102.82 119.891C101.776 118.772 101.838 117.019 102.957 115.975L121.774 98.4282L125.554 102.481L106.736 120.028C105.617 121.072 103.864 121.01 102.82 119.891Z" fill="#A9DAED" stroke="#A9DAED" stroke-width="0.791667"/>
<path d="M120.064 102.461C118.407 100.685 118.505 97.9024 120.281 96.2461L127.542 104.033C125.766 105.69 122.983 105.592 121.327 103.816L120.064 102.461Z" fill="#66C3E8"/>
<circle cx="137.929" cy="84.9522" r="20.1875" fill="white" fill-opacity="0.61" stroke="#66C3E8" stroke-width="3.95833"/>
<path d="M140.631 67.0807C143.867 67.5353 145.45 68.3274 146.637 69.1187C146.637 69.1187 125.262 97.6188 124.867 97.2232C124.471 96.8276 120.426 91.6469 121.204 90.501C121.983 89.3551 140.631 67.0807 140.631 67.0807Z" fill="white" fill-opacity="0.52"/>
<path d="M147.6 69.4639C148.925 70.6237 149.084 70.976 149.564 71.258C149.564 71.258 128.997 99.7695 128.695 99.837C128.393 99.9046 125.652 99.1468 126.449 98.0144C127.246 96.882 147.6 69.4639 147.6 69.4639Z" fill="white" fill-opacity="0.52"/>
<path d="M116.146 70.854C109.021 76.7914 107.437 83.9164 111 94.6038" stroke="#B5E4F7" stroke-width="2.375" stroke-linecap="round"/>
<path d="M106.072 76.8245C102.856 83.096 104.271 89.4581 106.646 93.4166" stroke="#B5E4F7" stroke-width="2.375" stroke-linecap="round"/>
<defs>
<clipPath id="clip0_1295_35894">
<path d="M164.909 99.2021L155.346 100.285L155.406 100.816C155.705 103.457 158.088 105.355 160.729 105.056C163.37 104.757 165.268 102.374 164.969 99.7334L164.909 99.2021Z" fill="white"/>
</clipPath>
</defs>
</svg>
